<svg data-v-0dd9719b="" version="1.0" xmlns="http://www.w3.org/2000/svg" xmlns:xlink="http://www.w3.org/1999/xlink" width="100%" height="100%" viewBox="0 0 340.000000 250.000000" preserveAspectRatio="xMidYMid meet" color-interpolation-filters="sRGB" style="margin: auto;"> <rect data-v-0dd9719b="" x="0" y="0" width="100%" height="100%" fill="#fff" fill-opacity="1" class="background"></rect> <rect data-v-0dd9719b="" x="0" y="0" width="100%" height="100%" fill="url(#watermark)" fill-opacity="1" class="watermarklayer"></rect> <g data-v-0dd9719b="" fill="#333" class="icon-text-wrapper icon-svg-group iconsvg" transform="translate(47.94000244140625,89.68593978881836)"><g class="iconsvg-imagesvg" transform="translate(0,0)"><g><rect fill="#333" fill-opacity="0" stroke-width="2" x="0" y="0" width="60" height="70.6281194086072" class="image-rect"></rect> <svg x="0" y="0" width="60" height="70.6281194086072" filtersec="colorsb900116844" class="image-svg-svg primary" style="overflow: visible;"><svg xmlns="http://www.w3.org/2000/svg" viewBox="-0.0027660317718982697 0.018489420413970947 61.60030746459961 72.51151275634766"><title>tjDvTc.tif</title><path d="M0 37.35Q0 20.91.05 4.48c0-.69-.28-1.57.45-2S2 2.6 2.64 3c10.3 5.41 18.5 13.32 26.08 22a188.21 188.21 0 0 1 14 18.28A222.56 222.56 0 0 1 55.27 64c1 1.9 2 3.79 3 5.68.2.39.65.92.18 1.23s-.88-.33-1.13-.72q-3.78-5.86-8.06-11.39a147.18 147.18 0 0 0-13.8-15.37A136 136 0 0 0 21.61 31.8c-.39-.29-.82-.85-1.32-.56s-.25.93-.25 1.42v37.17c0 2.5-.2 2.7-2.73 2.7H2.7c-2.42 0-2.65-.23-2.65-2.62Q0 53.64 0 37.35z" fill="#018896"></path><path d="M61.54 36.26V69.6c0 .68.3 1.72-.47 1.93s-1-.86-1.3-1.44c-3-6.35-6.31-12.52-9.88-18.54A203.71 203.71 0 0 0 35.19 30a136.23 136.23 0 0 0-13.82-15 70.41 70.41 0 0 0-18-12.57c-.8-.32-2.16-.7-1.9-1.43S3 .76 3.79.94a127.48 127.48 0 0 1 22.42 7.25 99 99 0 0 1 19.33 10.88c.79.57 1.52 1.21 2.29 1.81s1.41.58 1.71-.48a61.56 61.56 0 0 1 3-7.72A38.42 38.42 0 0 1 59.17 1.9c.47-.52 1-1.26 1.76-1s.57 1.22.58 1.88v33.49z" fill="#f39c00"></path><path d="M51.08 8.2c0 3.6-2 6.32-4.94 6.83-3.56.61-6.42-1.26-7.9-4.61A8 8 0 0 1 40.74 1c2.84-1.85 6-.89 8 1.26a7.38 7.38 0 0 1 2.34 5.94z" fill="#f39c00"></path></svg></svg> <!----></g></g> <g transform="translate(67,7.137807846069336)"><g data-gra="path-name" fill-rule="" class="tp-name iconsvg-namesvg" transform="translate(0,0)"><g transform="scale(1)"><g><path d="M3.01 4.5L8.78 4.5 8.78-20.07 36.23-20.07 36.23 4.5 41.98 4.5 41.98-25.56 25.47-25.56 25.47-28.71 43.47-28.71 43.47-34.29 25.47-34.29 25.47-36.9 19.53-36.9 19.53-34.29 1.53-34.29 1.53-28.71 19.53-28.71 19.53-25.56 3.01-25.56ZM9.95-1.62L19.62-1.62 19.62 4.14 25.38 4.14 25.38-1.62 35.05-1.62 35.05-7.11 25.38-7.11 25.38-9.9 34.6-9.9 34.6-15.3 30.82-15.3 32.13-18.77 26.37-18.77 25.06-15.3 19.93-15.3 18.63-18.77 12.87-18.77 14.17-15.3 10.39-15.3 10.39-9.9 19.62-9.9 19.62-7.11 9.95-7.11ZM48.2-24.03L54.05-24.03 54.05-27.63 80.95-27.63 80.95-24.03 86.81-24.03 86.81-33.44 70.47-33.44 70.47-36.9 64.53-36.9 64.53-33.44 48.2-33.44ZM47.25-15.97L65.2-15.97 65.2-1.35 58.19-1.35 58.19 4.5 71.14 4.5 71.14-15.97 87.75-15.97 87.75-21.82 47.25-21.82ZM93.92 3.24L132.75 3.24 127.44-9.22 120.87-9.22 123.7-2.56 103.95-2.56 111.69-16.11 132.75-16.11 132.75-21.87 92.25-21.87 92.25-16.11 104.81-16.11 97.06-2.56 93.92-2.56ZM95.44-28.66L129.56-28.66 129.56-34.42 95.44-34.42ZM152.82-30.38L152.82-11.61 156.33-11.61C156.1-5.67 154.71-0.94 150.57 4.5L157.5 4.5C160.29-0.77 161.69-5.63 161.91-11.61L167.22-11.61 167.22 4.23 178.65 4.23 178.65-1.26 172.8-1.26 172.8-11.61 176.94-11.61 176.94-30.38 173.34-30.38 174.96-36 169.16-36 167.53-30.38 162.22-30.38 160.6-36 154.8-36 156.42-30.38ZM136.53-11.92L140.85-11.92C141.39-17.73 141.62-23.36 141.62-29.29L137.47-29.29C137.47-23.4 137.21-17.73 136.53-11.92ZM142.65-36L142.69 4.5 148.32 4.5 148.32-18.4 151.47-16.7 151.47-23.31 148.32-25.02 148.32-36ZM158.49-17.19L158.49-24.79 171.27-24.79 171.27-17.19Z" transform="translate(-1.5299999713897705, 36.900001525878906)"></path></g> <!----> <!----> <!----> <!----> <!----> <!----> <!----></g></g> <g data-gra="path-slogan" fill-rule="" class="tp-slogan iconsvg-slogansvg" fill="#333" transform="translate(35.189998626708984,47.400001525878906)"><!----> <!----> <g transform="scale(1, 1)"><g transform="scale(1)"><path d="M2.30-8.58L6.61-1.64L6.61-8.58L7.73-8.58L7.73 0L6.42 0L2.06-6.94L2.02-6.94L2.02 0L0.89 0L0.89-8.58L2.30-8.58ZM15.19 0L14.34-2.48L10.88-2.48L9.98 0L8.81 0L12.05-8.58L13.36-8.58L16.45 0L15.19 0ZM12.61-7.31L11.25-3.52L13.92-3.52L12.66-7.31L12.61-7.31ZM18.89-8.58L23.20-1.64L23.20-8.58L24.33-8.58L24.33 0L23.02 0L18.66-6.94L18.61-6.94L18.61 0L17.48 0L17.48-8.58L18.89-8.58ZM27.52-8.58L31.83-1.64L31.83-8.58L32.95-8.58L32.95 0L31.64 0L27.28-6.94L27.23-6.94L27.23 0L26.11 0L26.11-8.58L27.52-8.58ZM34.92-8.58L36.09-8.58L36.09 0L34.92 0L34.92-8.58ZM39.47-8.58L43.78-1.64L43.78-8.58L44.91-8.58L44.91 0L43.59 0L39.23-6.94L39.19-6.94L39.19 0L38.06 0L38.06-8.58L39.47-8.58ZM53.11-3.61L50.48-3.61L50.48-4.59L54.23-4.59L54.23 0L53.48 0L53.20-1.08Q52.22 0.09 50.39 0.14L50.39 0.14Q48.66 0.14 47.72-0.75L47.72-0.75Q46.31-2.06 46.36-4.36L46.36-4.36Q46.69-8.63 50.44-8.81L50.44-8.81Q53.63-8.63 54.09-6L54.09-6L52.97-6Q52.50-7.78 50.39-7.83L50.39-7.83Q47.72-7.64 47.58-4.31L47.58-4.31Q47.58-0.75 50.44-0.75L50.44-0.75Q51.47-0.75 52.22-1.31L52.22-1.31Q53.16-2.06 53.11-3.61L53.11-3.61ZM66.28-8.58L63.05-3.47L63.05 0L61.88 0L61.88-3.47L58.64-8.58L60-8.58L62.44-4.45L64.92-8.58L66.28-8.58ZM72.98-3.19L72.98-8.58L74.16-8.58L74.16-3.05Q74.02 0.05 70.64 0.14L70.64 0.14Q67.50 0.05 67.36-2.86L67.36-2.86L67.36-8.58L68.53-8.58L68.53-3.19Q68.58-0.84 70.69-0.80L70.69-0.80Q72.98-0.84 72.98-3.19L72.98-3.19ZM77.34-8.58L81.66-1.64L81.66-8.58L82.78-8.58L82.78 0L81.47 0L77.11-6.94L77.06-6.94L77.06 0L75.94 0L75.94-8.58L77.34-8.58ZM91.50-8.58L88.27-3.47L88.27 0L87.09 0L87.09-3.47L83.86-8.58L85.22-8.58L87.66-4.45L90.14-8.58L91.50-8.58ZM98.20-3.19L98.20-8.58L99.38-8.58L99.38-3.05Q99.23 0.05 95.86 0.14L95.86 0.14Q92.72 0.05 92.58-2.86L92.58-2.86L92.58-8.58L93.75-8.58L93.75-3.19Q93.80-0.84 95.91-0.80L95.91-0.80Q98.20-0.84 98.20-3.19L98.20-3.19ZM102.47-1.03L107.63-1.03L107.63 0L101.30 0L101.30-8.58L107.53-8.58L107.53-7.59L102.47-7.59L102.47-4.92L107.16-4.92L107.16-3.89L102.47-3.89L102.47-1.03Z" transform="translate(-0.890625, 8.8125)"></path></g></g></g></g></g><defs v-gra="od"></defs></svg>